<?xml version="1.0" standalone="no"?>
<!DOCTYPE svg PUBLIC "-//W3C//DTD SVG 20010904//EN"
 "http://www.w3.org/TR/2001/REC-SVG-20010904/DTD/svg10.dtd">
<svg version="1.0" xmlns="http://www.w3.org/2000/svg"
 width="1000.000000pt" height="1000.000000pt" viewBox="0 0 1000.000000 1000.000000"
 preserveAspectRatio="xMidYMid meet">

<g transform="translate(0.000000,1000.000000) scale(0.100000,-0.100000)"
fill="#000000" stroke="none">
<path d="M0 5000 l0 -5000 5000 0 5000 0 0 5000 0 5000 -5000 0 -5000 0 0
-5000z m5302 2385 c209 -24 416 -77 618 -157 92 -36 300 -139 300 -149 0 -5
-158 -282 -306 -535 l-52 -90 -105 51 c-748 369 -1661 124 -2129 -570 -256
-380 -345 -848 -248 -1297 92 -426 369 -822 735 -1053 33 -21 62 -39 64 -41 7
-6 -354 -624 -365 -624 -6 0 -58 31 -115 69 -366 245 -644 560 -834 946 -169
342 -246 676 -246 1065 0 638 230 1208 671 1664 337 348 741 577 1205 681 241
54 556 70 807 40z m742 -2297 c0 -29 -7 -54 -17 -66 -12 -13 -14 -21 -6 -29
13 -13 -4 -97 -23 -120 -13 -16 -194 -18 -203 -2 -4 6 -4 26 -1 45 6 28 11 34
31 34 19 0 25 -5 25 -20 0 -19 5 -21 57 -18 56 3 57 4 64 36 6 32 6 32 -32 32
-42 0 -42 0 -33 24 4 10 18 16 40 16 28 0 36 5 44 26 16 41 13 44 -50 44 -47
0 -60 -3 -60 -15 0 -9 -9 -15 -25 -15 -30 0 -33 24 -9 58 15 21 22 23 107 20
l92 -3 -1 -47z m275 38 c19 -23 3 -66 -25 -66 -15 0 -24 6 -24 15 0 12 -13 15
-60 15 -52 0 -60 -2 -60 -19 0 -11 -3 -26 -6 -35 -5 -14 5 -16 76 -16 l83 0
-6 -50 c-3 -28 -12 -63 -19 -78 -13 -26 -16 -27 -111 -30 -74 -2 -99 0 -102
11 -7 18 40 234 55 252 17 21 182 21 199 1z m276 4 c9 -14 -34 -220 -51 -247
-13 -21 -22 -23 -103 -23 -99 0 -111 7 -104 58 5 27 9 32 33 32 23 0 27 -4 23
-20 -5 -18 0 -20 56 -20 42 0 61 4 61 13 0 6 3 22 6 35 6 21 4 22 -75 22 -77
0 -81 1 -81 23 1 34 20 110 32 124 13 16 194 18 203 3z"/>
<path d="M6126 4958 c-12 -45 -9 -48 54 -48 41 0 60 4 60 13 0 6 3 22 6 35 6
21 4 22 -54 22 -53 0 -60 -2 -66 -22z"/>
<path d="M6417 5058 c-2 -18 -3 -36 0 -40 2 -5 28 -8 57 -8 52 0 54 1 60 31 3
17 6 35 6 40 0 5 -26 9 -59 9 -59 0 -59 0 -64 -32z"/>
</g>
</svg>
